# xmcd CD database file
#
# Track frame offsets:
#	150
#	9942
#	21978
#	38045
#	49823
#	65172
#	80054
#	93967
#	106099
#	120670
#	133101
#	146086
#	156974
#	171018
#
# Disc length: 2565 seconds
#
# Revision: 1
# Processed by: cddbd v1.5.2PL0 Copyright (c) Steve Scherf et al.
# Submitted via: CDex 1.70beta2
#
DISCID=ba0a030e
DTITLE=Frem fra glemselen - Frem fra Glemselen kapittel 21
DYEAR=2008
DGENRE=Schillingsviser
TTITLE0=Gro Anita Johansen - Kjære John
TTITLE1=Rune Johnsrud - En fattig millionær
TTITLE2=Espen Hagen Olsen - Det er det samme hvor jag drar
TTITLE3=Anette Løvtangen - Han er min sang og min glede
TTITLE4=Gro Anita Johansen - Farvel Jimmy farvel
TTITLE5=Rune Johnsrud - En liten cowboy
TTITLE6=Rune Johnsrud - Mor hvor du er kjærlig
TTITLE7=Espen Hagen Olsen - Den gamle smeden
TTITLE8=Gro Anita Johansen - Gale Truls
TTITLE9=Rune Johnsrud - Brevet
TTITLE10=Espen Hagen Olsen - Dagdrivervise
TTITLE11=Rune Johnsrud og Anette Løvtangen - Helsa hem til mamma
TTITLE12=Rune Johnsrud - Fant-Sonja
TTITLE13=Anette Løvtangen - Det gamle ærverdige kors
EXTD=YEAR: 2008
EXTT0=
EXTT1=
EXTT2=
EXTT3=
EXTT4=
EXTT5=
EXTT6=
EXTT7=
EXTT8=
EXTT9=
EXTT10=
EXTT11=
EXTT12=
EXTT13=
PLAYORDER=
